<svg height="496pt" viewBox="0 0 496 496" width="496pt" xmlns="http://www.w3.org/2000/svg"><g fill="#57a4ff"><path d="m424 192h32v48h-32zm0 0"/><path d="m424 280h32v48h-32zm0 0"/><path d="m424 368h32v48h-32zm0 0"/><path d="m40 368h32v48h-32zm0 0"/><path d="m328 344h-80v144h80zm0 0"/><path d="m168 344v144h80v-144zm0 0"/><path d="m40 280h32v48h-32zm0 0"/><path d="m40 192h32v48h-32zm0 0"/><path d="m168 248h48v48h-48zm0 0"/><path d="m168 152h48v48h-48zm0 0"/><path d="m168 56h48v48h-48zm0 0"/><path d="m280 248h48v48h-48zm0 0"/><path d="m280 152h48v48h-48zm0 0"/><path d="m280 56h48v48h-48zm0 0"/></g><path d="m488 480h-24v-320c0-4.417969-3.582031-8-8-8h-64v-144c0-4.417969-3.582031-8-8-8h-272c-4.417969 0-8 3.582031-8 8v144h-64c-4.417969 0-8 3.582031-8 8v320h-24c-4.417969 0-8 3.582031-8 8s3.582031 8 8 8h480c4.417969 0 8-3.582031 8-8s-3.582031-8-8-8zm-40-248h-16v-32h16zm0 88h-16v-32h16zm0 88h-16v-32h16zm0-240v16h-24c-4.417969 0-8 3.582031-8 8v48c0 4.417969 3.582031 8 8 8h24v24h-24c-4.417969 0-8 3.582031-8 8v48c0 4.417969 3.582031 8 8 8h24v24h-24c-4.417969 0-8 3.582031-8 8v48c0 4.417969 3.582031 8 8 8h24v56h-56v-312zm-328-152h256v464h-40v-136c0-4.417969-3.582031-8-8-8h-160c-4.417969 0-8 3.582031-8 8v136h-40zm136 336h64v128h-64zm-16 128h-64v-128h64zm-192-104h16v32h-16zm0-88h16v32h-16zm0-88h16v32h-16zm0 224h24c4.417969 0 8-3.582031 8-8v-48c0-4.417969-3.582031-8-8-8h-24v-24h24c4.417969 0 8-3.582031 8-8v-48c0-4.417969-3.582031-8-8-8h-24v-24h24c4.417969 0 8-3.582031 8-8v-48c0-4.417969-3.582031-8-8-8h-24v-16h56v312h-56zm0 0" fill="#004fac"/><path d="m168 304h48c4.417969 0 8-3.582031 8-8v-48c0-4.417969-3.582031-8-8-8h-48c-4.417969 0-8 3.582031-8 8v48c0 4.417969 3.582031 8 8 8zm8-48h32v32h-32zm0 0" fill="#004fac"/><path d="m168 208h48c4.417969 0 8-3.582031 8-8v-48c0-4.417969-3.582031-8-8-8h-48c-4.417969 0-8 3.582031-8 8v48c0 4.417969 3.582031 8 8 8zm8-48h32v32h-32zm0 0" fill="#004fac"/><path d="m168 112h48c4.417969 0 8-3.582031 8-8v-48c0-4.417969-3.582031-8-8-8h-48c-4.417969 0-8 3.582031-8 8v48c0 4.417969 3.582031 8 8 8zm8-48h32v32h-32zm0 0" fill="#004fac"/><path d="m280 304h48c4.417969 0 8-3.582031 8-8v-48c0-4.417969-3.582031-8-8-8h-48c-4.417969 0-8 3.582031-8 8v48c0 4.417969 3.582031 8 8 8zm8-48h32v32h-32zm0 0" fill="#004fac"/><path d="m280 208h48c4.417969 0 8-3.582031 8-8v-48c0-4.417969-3.582031-8-8-8h-48c-4.417969 0-8 3.582031-8 8v48c0 4.417969 3.582031 8 8 8zm8-48h32v32h-32zm0 0" fill="#004fac"/><path d="m280 112h48c4.417969 0 8-3.582031 8-8v-48c0-4.417969-3.582031-8-8-8h-48c-4.417969 0-8 3.582031-8 8v48c0 4.417969 3.582031 8 8 8zm8-48h32v32h-32zm0 0" fill="#004fac"/></svg>