<svg height="488pt" viewBox="0 -116 488 488" width="488pt" xmlns="http://www.w3.org/2000/svg"><path d="m320 224h32v-16h24v16h32v-16h24v16h32v-48h-144zm0 0" fill="#57a4ff"/><path d="m128 68c0-33.136719-26.863281-60-60-60s-60 26.863281-60 60v120c0 33.136719 26.863281 60 60 60s60-26.863281 60-60zm-40 120c-.054688 7.070312-3.820312 13.589844-9.917969 17.171875-6.09375 3.582031-13.625 3.695313-19.824219.300781-6.511718-3.773437-10.441406-10.800781-10.257812-18.320312v-118.304688c-.183594-7.519531 3.746094-14.546875 10.257812-18.320312 6.199219-3.394532 13.730469-3.28125 19.824219.300781 6.097657 3.582031 9.863281 10.101563 9.917969 17.171875zm0 0" fill="#57a4ff"/><g fill="#004fac"><path d="m82.183594 43.953125c-8.476563-5.136719-19.058594-5.320313-27.703125-.472656-9.136719 5.136719-14.703125 14.886719-14.480469 25.367187v118.304688c-.210938 7.574218 2.652344 14.910156 7.929688 20.339844 5.28125 5.433593 12.535156 8.503906 20.109374 8.507812 4.992188-.023438 9.882813-1.40625 14.144532-4 8.476562-5.042969 13.710937-14.136719 13.816406-24v-120c-.085938-9.878906-5.324219-18.996094-13.816406-24.046875zm-2.183594 144.046875c-.070312 4.257812-2.359375 8.171875-6.039062 10.320312-3.660157 2.210938-8.234376 2.246094-11.929688.09375-3.898438-2.386718-6.203125-6.691406-6.03125-11.261718v-118.304688c-.167969-4.5625 2.136719-8.863281 6.03125-11.246094 1.824219-1.027343 3.875-1.578124 5.96875-1.601562 2.105469.011719 4.164062.59375 5.96875 1.679688 3.675781 2.148437 5.960938 6.0625 6.03125 10.320312zm0 0"/><path d="m480 72h-344v-4c0-37.554688-30.445312-68-68-68s-68 30.445312-68 68v120c0 37.554688 30.445312 68 68 68s68-30.445312 68-68v-4h176v40c0 4.417969 3.582031 8 8 8h32c4.417969 0 8-3.582031 8-8v-8h8v8c0 4.417969 3.582031 8 8 8h32c4.417969 0 8-3.582031 8-8v-8h8v8c0 4.417969 3.582031 8 8 8h32c4.417969 0 8-3.582031 8-8v-40h8c4.417969 0 8-3.582031 8-8v-96c0-4.417969-3.582031-8-8-8zm-360 116c0 28.71875-23.28125 52-52 52s-52-23.28125-52-52v-120c0-28.71875 23.28125-52 52-52s52 23.28125 52 52zm336 28h-16v-8c0-4.417969-3.582031-8-8-8h-24c-4.417969 0-8 3.582031-8 8v8h-16v-8c0-4.417969-3.582031-8-8-8h-24c-4.417969 0-8 3.582031-8 8v8h-16v-32h128zm16-48h-336v-80h336zm0 0"/><path d="m384 160h72c4.417969 0 8-3.582031 8-8v-32c0-4.417969-3.582031-8-8-8s-8 3.582031-8 8v24h-64c-4.417969 0-8 3.582031-8 8s3.582031 8 8 8zm0 0"/><path d="m152 144c4.417969 0 8-3.582031 8-8v-24h48c4.417969 0 8-3.582031 8-8s-3.582031-8-8-8h-56c-4.417969 0-8 3.582031-8 8v32c0 4.417969 3.582031 8 8 8zm0 0"/><path d="m232 112h16c4.417969 0 8-3.582031 8-8s-3.582031-8-8-8h-16c-4.417969 0-8 3.582031-8 8s3.582031 8 8 8zm0 0"/></g></svg>