<svg height="496pt" viewBox="0 0 496 496.17148" width="496pt" xmlns="http://www.w3.org/2000/svg"><path d="m448.085938 176.171875 40-56-40-56h-184v112zm-24-56v-24 48zm-40-24v48zm-48 0h24zm-48 24v-24 24h24v24-24zm0 0" fill="#57a4ff"/><path d="m232.085938 240.171875v-112h-184l-40 56 40 56zm-88-80 24 48zm-48 24v-24 48zm-48-24h24v24h-16l16 24-16-24h16v-24zm0 0" fill="#57a4ff"/><path d="m272.085938 32.171875c0 13.253906-10.746094 24-24 24-13.253907 0-24-10.746094-24-24s10.746093-24 24-24c13.253906 0 24 10.746094 24 24zm0 0" fill="#57a4ff"/><g fill="#004fac"><path d="m312.085938 104.171875c4.417968 0 8-3.582031 8-8s-3.582032-8-8-8h-24c-4.417969 0-8 3.582031-8 8v24c0 4.417969 3.582031 8 8 8h16v8h-16c-4.417969 0-8 3.582031-8 8s3.582031 8 8 8h24c4.417968 0 8-3.582031 8-8v-24c0-4.417969-3.582032-8-8-8h-16v-8zm0 0"/><path d="m360.085938 88.171875h-24c-4.417969 0-8 3.582031-8 8v48c0 4.417969 3.582031 8 8 8 4.417968 0 8-3.582031 8-8v-16h8v16c0 4.417969 3.582031 8 8 8 4.417968 0 8-3.582031 8-8v-48c0-4.417969-3.582032-8-8-8zm-16 24v-8h8v8zm0 0"/><path d="m408.085938 136.171875h-16v-40c0-4.417969-3.582032-8-8-8-4.417969 0-8 3.582031-8 8v48c0 4.417969 3.582031 8 8 8h24c4.417968 0 8-3.582031 8-8s-3.582032-8-8-8zm0 0"/><path d="m416.085938 96.171875v48c0 4.417969 3.582031 8 8 8h24c4.417968 0 8-3.582031 8-8s-3.582032-8-8-8h-16v-8h16c4.417968 0 8-3.582031 8-8s-3.582032-8-8-8h-16v-8h16c4.417968 0 8-3.582031 8-8s-3.582032-8-8-8h-24c-4.417969 0-8 3.582031-8 8zm0 0"/><path d="m72.085938 152.171875h-24c-4.417969 0-8 3.582031-8 8v48c0 4.417969 3.582031 8 8 8 4.417968 0 8-3.582031 8-8v-9.601563l9.34375 14.015626c2.453124 3.675781 7.421874 4.667968 11.097656 2.21875 3.675781-2.453126 4.667968-7.421876 2.214844-11.097657l-7.703126-11.535156h1.046876c4.417968 0 8-3.582031 8-8v-24c0-4.417969-3.582032-8-8-8zm-8 24h-8v-8h8zm0 0"/><path d="m120.085938 168.171875c4.417968 0 8-3.582031 8-8s-3.582032-8-8-8h-24c-4.417969 0-8 3.582031-8 8v48c0 4.417969 3.582031 8 8 8h24c4.417968 0 8-3.582031 8-8s-3.582032-8-8-8h-16v-8h16c4.417968 0 8-3.582031 8-8s-3.582032-8-8-8h-16v-8zm0 0"/><path d="m168.085938 152.171875c-4.417969 0-8 3.582031-8 8v14.113281l-8.800782-17.691406c-1.632812-3.371094-5.382812-5.15625-9.03125-4.300781-3.648437.859375-6.210937 4.132812-6.167968 7.878906v48c0 4.417969 3.582031 8 8 8 4.417968 0 8-3.582031 8-8v-14.113281l8.839843 17.6875c1.65625 3.324218 5.382813 5.070312 8.996094 4.21875 3.617187-.851563 6.167969-4.078125 6.164063-7.792969v-48c0-4.417969-3.582032-8-8-8zm0 0"/><path d="m216.085938 152.171875h-32c-4.417969 0-8 3.582031-8 8s3.582031 8 8 8h8v40c0 4.417969 3.582031 8 8 8 4.417968 0 8-3.582031 8-8v-40h8c4.417968 0 8-3.582031 8-8s-3.582032-8-8-8zm0 0"/><path d="m494.597656 115.523438-40-56c-1.5-2.105469-3.925781-3.351563-6.511718-3.351563h-176c-.03125-.839844-.199219-1.667969-.496094-2.457031 11.769531-12.738282 11.25-32.535156-1.175782-44.636719-12.425781-12.105469-32.230468-12.105469-44.65625 0-12.421874 12.101563-12.945312 31.898437-1.175781 44.636719-.296875.789062-.460937 1.617187-.496093 2.457031v64h-176c-2.585938 0-5.007813 1.246094-6.511719 3.351563l-40 56c-1.984375 2.78125-1.984375 6.515624 0 9.296874l40 56c1.503906 2.101563 3.925781 3.351563 6.511719 3.351563h176v200h-160c-4.417969 0-8 3.582031-8 8v32c0 4.417969 3.582031 8 8 8h368c4.417968 0 8-3.582031 8-8v-32c0-4.417969-3.582032-8-8-8h-160v-264h176c2.585937 0 5.011718-1.25 6.511718-3.351563l40-56c1.984375-2.78125 1.984375-6.515624 0-9.296874zm-246.511718-99.351563c8.835937 0 16 7.164063 16 16s-7.164063 16-16 16c-8.835938 0-16-7.164063-16-16s7.164062-16 16-16zm-195.878907 216-34.289062-48 34.289062-48h171.878907v96zm371.878907 248h-352v-16h352zm-184-32v-384h16v384zm203.878906-280h-171.878906v-96h171.878906l34.289062 48zm0 0"/></g></svg>