<svg height="490.97141pt" viewBox="0 0 490.97141 490.97141" width="490.97141pt" xmlns="http://www.w3.org/2000/svg"><g fill="#57a4ff"><path d="m201.605469 305.597656 104-104.003906 40 40-104.003907 104zm0 0"/><path d="m161.601562 313.601562c83.945313 0 152-68.054687 152-152 0-83.949218-68.054687-152-152-152-83.949218 0-152 68.050782-152 152 0 83.945313 68.050782 152 152 152zm0-248c53.019532 0 96 42.980469 96 96 0 53.019532-42.980468 96-96 96-53.019531 0-96-42.980468-96-96 0-53.019531 42.980469-96 96-96zm0 0"/><path d="m193.601562 153.601562h24l-56-48-56 48zm0 0"/></g><path d="m222.808594 147.527344-56-48c-2.992188-2.558594-7.40625-2.558594-10.398438 0l-56 48c-2.539062 2.179687-3.457031 5.703125-2.296875 8.84375 1.15625 3.136718 4.144531 5.222656 7.488281 5.230468h16v48c0 4.417969 3.582032 8 8 8h64c4.417969 0 8-3.582031 8-8v-48h16c3.347657 0 6.339844-2.085937 7.5-5.222656 1.164063-3.140625.246094-6.671875-2.292968-8.851562zm-61.207032-31.390625 34.398438 29.464843h-68.800781zm24 85.464843h-48v-40h48zm0 0" fill="#004fac"/><path d="m161.601562 57.601562c-57.4375 0-104 46.5625-104 104s46.5625 104 104 104 104-46.5625 104-104c-.066406-57.410156-46.589843-103.933593-104-104zm0 192c-48.601562 0-88-39.398437-88-88 0-48.601562 39.398438-88 88-88 48.601563 0 88 39.398438 88 88-.058593 48.578126-39.421874 87.941407-88 88zm0 0" fill="#004fac"/><path d="m483.945312 424.632812-155.03125-155.03125 22.34375-22.34375c3.121094-3.125 3.121094-8.1875 0-11.3125l-34.800781-34.800781c18.199219-70.214843-12.863281-143.921875-75.828125-179.929687-62.964844-36.007813-142.242187-25.40625-193.53125 25.882812-51.289062 51.289063-61.890625 130.566406-25.882812 193.53125 36.007812 62.964844 109.714844 94.027344 179.929687 75.828125l34.800781 34.800781c3.125 3.121094 8.1875 3.121094 11.3125 0l22.34375-22.34375 155.03125 155.03125c9.371094 9.367188 24.5625 9.367188 33.9375 0l25.375-25.375c9.367188-9.375 9.367188-24.566406 0-33.9375zm-466.34375-263.03125c0-79.53125 64.46875-144 144-144 79.527344 0 144 64.46875 144 144 0 79.527344-64.472656 144-144 144-79.492187-.09375-143.910156-64.511718-144-144zm224 172.6875-23.273437-23.273437c42.671875-16.304687 76.382813-50.015625 92.6875-92.6875l23.273437 23.273437zm231.03125 112.96875-25.375 25.375c-3.125 3.121094-8.1875 3.121094-11.3125 0l-155.03125-155.03125 36.6875-36.6875 155.03125 155.03125c3.121094 3.125 3.121094 8.1875 0 11.3125zm0 0" fill="#004fac"/></svg>